<svg xmlns="http://www.w3.org/2000/svg" fill="none" viewBox="0 0 24 24">
    <style>
        #fv-g {
            fill: #555;
        }
        @media (prefers-color-scheme: dark) {
            #fv-g {
                fill: #777;
            }
        }
    </style>
    <g id="fv-g">
        <path d="M11.8 6.9a23 23 0 0 1 8.6-.2 10 10 0 0 0-16.1-1c.4 1.3 1 2.5 1.6 3.7.4.7 1.4.6 1.8 0a5 5 0 0 1 4.1-2.5zM7.7 14.7a23 23 0 0 1-4.6-7.3 10 10 0 0 0 7.4 14.4c1-1 1.7-2.1 2.4-3.3.4-.7-.2-1.5-1-1.5a5 5 0 0 1-4.2-2.3z"/>
        <path d="M8.6 12c0 .6.1 1.2.4 1.7.6 1 1.8 1.7 3 1.7a3.4 3.4 0 0 0 3.4-3.4 3.4 3.4 0 0 0-6.8 0z"/>
        <path d="M21.3 8.4C20 8.1 18.6 8 17.2 8c-.8 0-1.2.9-.8 1.6a4.9 4.9 0 0 1 0 4.8c-1 2.9-2.4 5.4-4.2 7.7a10 10 0 0 0 9.1-13.6z"/>
    </g>
</svg>
