<svg xmlns="http://www.w3.org/2000/svg" fill="none" viewBox="0 0 221 241">
    <path fill="currentColor" d="M120.912 240.098c-66.168 0-120-53.832-120-120s53.832-120 120-120c3.206 0 6.49.133 9.761.397a10.003 10.003 0 0 1 7.377 15.72c-11.866 16.876-18.138 36.738-18.138 57.438 0 25.291 9.463 49.426 26.645 67.96 17.089 18.436 40.246 29.697 65.202 31.708a10 10 0 0 1 7.377 15.72c-22.479 31.97-59.198 51.057-98.224 51.057Zm-8.599-219.634c-51.128 4.377-91.4 47.392-91.4 99.634 0 55.14 44.859 100 99.999 100 26.891 0 52.468-10.876 71.112-29.708-22.935-5.456-43.836-17.599-60.134-35.179-20.621-22.244-31.978-51.208-31.978-81.558 0-18.658 4.248-36.752 12.401-53.19Z"/>
</svg>