<svg xmlns="http://www.w3.org/2000/svg" fill="none" viewBox="0 0 380 380">
    <path fill="currentColor" d="M190.098 290.098c-55.14 0-100-44.86-100-100s44.86-100 100-100 100 44.86 100 100-44.86 100-100 100Zm0-180c-44.113 0-80 35.887-80 80 0 44.112 35.887 80 80 80 44.112 0 80-35.888 80-80 0-44.113-35.888-80-80-80ZM190 74c-5.523 0-10-4.477-10-10V10c0-5.523 4.477-10 10-10s10 4.477 10 10v54c0 5.523-4.477 10-10 10ZM190 380c-5.523 0-10-4.477-10-10v-54c0-5.523 4.477-10 10-10s10 4.477 10 10v54c0 5.523-4.477 10-10 10ZM64 200H10c-5.523 0-10-4.477-10-10s4.477-10 10-10h54c5.523 0 10 4.477 10 10s-4.477 10-10 10ZM370 200h-54c-5.523 0-10-4.477-10-10s4.477-10 10-10h54c5.523 0 10 4.477 10 10s-4.477 10-10 10ZM278.542 111.458a9.966 9.966 0 0 1-7.071-2.929c-3.905-3.905-3.905-10.237 0-14.142l38.737-38.738c3.905-3.905 10.237-3.905 14.143 0 3.904 3.906 3.904 10.238 0 14.143l-38.738 38.737a9.966 9.966 0 0 1-7.071 2.929ZM62.72 327.279a9.971 9.971 0 0 1-7.07-2.928c-3.905-3.906-3.905-10.238 0-14.143l38.737-38.737c3.905-3.906 10.237-3.906 14.142 0 3.905 3.905 3.905 10.237 0 14.142l-38.737 38.738a9.971 9.971 0 0 1-7.071 2.928ZM101.458 111.458a9.968 9.968 0 0 1-7.071-2.929L55.649 69.792c-3.904-3.905-3.904-10.237 0-14.143 3.906-3.905 10.238-3.905 14.143 0l38.737 38.738c3.905 3.905 3.905 10.237 0 14.142a9.966 9.966 0 0 1-7.071 2.929ZM317.279 327.279a9.971 9.971 0 0 1-7.071-2.928l-38.737-38.738c-3.905-3.905-3.905-10.237 0-14.142 3.905-3.906 10.237-3.906 14.142 0l38.738 38.737c3.904 3.905 3.904 10.237 0 14.143a9.973 9.973 0 0 1-7.072 2.928Z"/>
</svg>
