<svg xmlns="http://www.w3.org/2000/svg" fill="none" viewBox="0 0 380 231">
    <path fill="currentColor" d="M69.717 230.192C31.245 229.939 0 198.534 0 160.186c0-33.324 22.987-61.18 54.279-68.263a47.793 47.793 0 0 1-.764-8.559c0-26.252 21.358-47.61 47.61-47.61 8.72 0 17.078 2.327 24.37 6.688C145.476 16.019 176.307.544 209.956.544c52.588 0 96.915 38.739 104.78 89.785C351.134 92.78 380 123.176 380 160.186c0 38.222-31.096 69.625-69.318 70.001l-240.965.005Zm31.408-174.438c-15.224 0-27.61 12.386-27.61 27.61 0 4.343.986 8.507 2.93 12.374a10 10 0 0 1-8.54 14.484C41.042 111.283 20 133.229 20 160.186c0 27.393 22.333 49.826 49.783 50.006l240.8-.004c27.205-.269 49.417-22.7 49.417-50.002 0-27.58-22.438-50.017-50.017-50.017-1.027 0-2.145.044-3.515.14a10 10 0 0 1-10.673-9.336c-2.893-45.1-40.598-80.429-85.839-80.429-30.34 0-57.859 15.51-73.614 41.486a10.002 10.002 0 0 1-15.641 1.867c-5.222-5.252-12.174-8.143-19.576-8.143Z"/>
</svg>
