<svg xmlns="http://www.w3.org/2000/svg" viewBox="0 0 1920 1080">
    <path fill="#5C7DA1" d="M0 0h1920v1080H0z"/>
    <path fill="#557499" d="m0 117.648 40-.956c40-.956 120-2.868 200-3.165 80-.296 160 1.023 240 1.171 80 .149 160-.874 240-13.637s160-37.267 240-39.336c80-2.069 160 18.295 240 12.054 80-6.242 160-39.089 240-40.952 80-1.863 160 27.259 240 34.513 80 7.253 160-7.361 200-14.668l40-7.308V1080H0Z"/>
    <path fill="#4D6B91" d="m0 128.045 40 12.641c40 12.642 120 37.924 200 42.482 80 4.559 160-11.606 240-19.697s160-8.108 240 3.62c80 11.728 160 35.201 240 47.808s160 14.347 240-.007c80-14.355 160-44.804 240-57.351 80-12.547 160-7.19 240 4.55s160 29.864 200 38.926l40 9.062V1080H0Z"/>
    <path fill="#466289" d="m0 352.635 40-8.704c40-8.705 120-26.114 200-43.827 80-17.713 160-35.73 240-45.649 80-9.92 160-11.741 240-.762s160 34.76 240 42.234c80 7.475 160-1.356 240-10.535 80-9.178 160-18.705 240-21.307 80-2.602 160 1.719 240 4.784 80 3.066 160 4.875 200 5.78l40 .904V1080H0Z"/>
    <path fill="#3F5981" d="m0 453.774 40 3.513c40 3.513 120 10.538 200 14.752 80 4.215 160 5.617 240-2.498s160-25.747 240-39.776c80-14.029 160-24.454 240-33.553 80-9.099 160-16.871 240-5.388 80 11.484 160 42.224 240 59.898 80 17.674 160 22.282 240 24.75 80 2.467 160 2.794 200 2.957l40 .164V1080H0Z"/>
    <path fill="#375079" d="m0 556.58 40-1.743c40-1.743 120-5.229 200-12.351 80-7.122 160-17.88 240-9.383 80 8.498 160 36.252 240 47.826 80 11.574 160 6.968 240 5.659 80-1.31 160 .677 240-1.628 80-2.305 160-8.903 240-25.364 80-16.46 160-42.782 240-39.63 80 3.152 160 35.779 200 52.092l40 16.313V1080H0Z"/>
    <path fill="#304771" d="m0 654.968 40-6.236c40-6.237 120-18.709 200-18.966 80-.257 160 11.701 240 28.365 80 16.664 160 38.034 240 39.315 80 1.282 160-17.524 240-28.606s160-14.44 240-23.363c80-8.924 160-23.413 240-30.829s160-7.759 240-1.235c80 6.523 160 19.914 200 26.609l40 6.695V1080H0Z"/>
    <path fill="#293E69" d="m0 835.433 40-3.685c40-3.686 120-11.058 200-27.565 80-16.506 160-42.146 240-38.992 80 3.155 160 35.105 240 40.096s160-16.977 240-22.126c80-5.149 160 6.523 240 7.242 80 .719 160-9.515 240-8.313s160 13.84 240 19.987c80 6.147 160 5.804 200 5.632l40-.171V1080H0Z"/>
    <path fill="#213561" d="m0 893.191 40 2.421c40 2.42 120 7.262 200 9.629 80 2.366 160 2.258 240 1.08 80-1.177 160-3.424 240-5.395 80-1.972 160-3.668 240-11.74 80-8.071 160-22.518 240-31.144 80-8.627 160-11.434 240-7.426 80 4.008 160 14.831 240 21.635 80 6.804 160 9.589 200 10.982l40 1.392V1080H0Z"/>
    <path fill="#1A2C59" d="m0 1000.057 40 4.319c40 4.318 120 12.955 200 19.179 80 6.223 160 10.034 240 15.999s160 14.085 240 12.698c80-1.387 160-12.28 240-23.544 80-11.264 160-22.898 240-22.608 80 .29 160 12.505 240 10.564 80-1.94 160-18.035 240-13.667s160 29.2 200 41.616l40 12.416V1080H0Z"/>
</svg>