<svg xmlns="http://www.w3.org/2000/svg" fill="none" viewBox="0 0 380 315">
    <path fill="currentColor" d="m310.58 230.091-10.584-.004L69.716 230C31.276 230 0 198.639 0 160.09c0-33.277 22.986-61.094 54.279-68.168a47.794 47.794 0 0 1-.764-8.559c0-26.253 21.358-47.61 47.61-47.61 8.721 0 17.079 2.326 24.37 6.687C145.477 16.015 176.309.538 209.956.538c52.585 0 96.909 38.729 104.778 89.767C351.136 92.753 380 123.139 380 160.138c0 38.196-31.096 69.577-69.318 69.952l-.102.001Zm-10.577-20.004 10.532.004c27.28-.295 49.465-22.694 49.465-49.953 0-27.566-22.438-49.992-50.017-49.992-1.185 0-2.441.076-3.515.15a10.004 10.004 0 0 1-10.673-9.335c-2.892-45.097-40.598-80.423-85.839-80.423-30.339 0-57.858 15.51-73.614 41.49a10.001 10.001 0 0 1-15.641 1.866c-5.221-5.25-12.173-8.141-19.576-8.141-15.224 0-27.61 12.386-27.61 27.61 0 4.345.986 8.508 2.93 12.374a10 10 0 0 1-8.54 14.485C41.042 111.282 20 133.188 20 160.09 20 187.61 42.303 210 69.717 210H80l220.003.087ZM287.625 315h-.007l-56.375-.024c-5.522-.004-9.996-4.471-9.993-9.995.003-5.52 4.48-9.981 10-9.981h.007l56.375.032c5.522.004 9.996 4.467 9.993 9.991-.003 5.52-4.48 9.977-10 9.977ZM192.25 315h-.004l-99.416-.024c-5.522-.002-9.998-4.468-9.996-9.992.002-5.521 4.479-9.984 10-9.984h.004l99.416.032c5.522.002 9.998 4.464 9.996 9.988-.002 5.521-4.479 9.98-10 9.98ZM310.875 273h-.003l-129.541-.024c-5.523-.002-9.998-4.468-9.997-9.991.001-5.521 4.479-9.985 10-9.985h.003l129.541.032c5.523.002 9.998 4.464 9.997 9.987-.001 5.521-4.479 9.981-10 9.981ZM143.875 273h-.005l-71.541-.024c-5.523-.003-9.998-4.47-9.995-9.993.003-5.521 4.48-9.983 10-9.983h.005l71.541.032c5.523.003 9.998 4.466 9.995 9.989-.003 5.521-4.48 9.979-10 9.979Z"/>
</svg>