<svg width="800" height="800" viewBox="0 0 800 800" fill="none" xmlns="http://www.w3.org/2000/svg">
<g clip-path="url(#clip0_302_59)">
<path d="M800 0H0V800H800V0Z" fill="white"/>
<path d="M800 0H0V800H800V0Z" fill="#00C5DF" fill-opacity="0.418266"/>
<mask id="mask0_302_59" style="mask-type:luminance" maskUnits="userSpaceOnUse" x="0" y="0" width="800" height="800">
<path d="M800 0H0V800H800V0Z" fill="white"/>
</mask>
<g mask="url(#mask0_302_59)">
<g filter="url(#filter0_f_302_59)">
<path d="M664.5 42H184V467H664.5V42Z" fill="#EE46D3"/>
<path d="M754.5 341H349V748.5H754.5V341Z" fill="#1BC47D"/>
<path d="M547 263H41V770.5H547V263Z" fill="#1BC47D"/>
<path d="M456 45H8.5V524.5H456V45Z" fill="#907CFF"/>
</g>
</g>
<g style="mix-blend-mode:overlay">
<path d="M800 0H0V800H800V0Z" fill="#808080"/>
</g>
</g>
<defs>
<filter id="filter0_f_302_59" x="-241.5" y="-208" width="1246" height="1228.5" filterUnits="userSpaceOnUse" color-interpolation-filters="sRGB">
<feFlood flood-opacity="0" result="BackgroundImageFix"/>
<feBlend mode="normal" in="SourceGraphic" in2="BackgroundImageFix" result="shape"/>
<feGaussianBlur stdDeviation="125" result="effect1_foregroundBlur_302_59"/>
</filter>
<clipPath id="clip0_302_59">
<rect width="800" height="800" fill="white"/>
</clipPath>
</defs>
</svg>
