<svg width="800" height="800" viewBox="0 0 800 800" fill="none" xmlns="http://www.w3.org/2000/svg">
<g clip-path="url(#clip0_302_44)">
<path d="M800 0H0V800H800V0Z" fill="white"/>
<path d="M800 0H0V800H800V0Z" fill="#EE46D3" fill-opacity="0.202917"/>
<mask id="mask0_302_44" style="mask-type:luminance" maskUnits="userSpaceOnUse" x="0" y="0" width="800" height="800">
<path d="M800 0H0V800H800V0Z" fill="white"/>
</mask>
<g mask="url(#mask0_302_44)">
<g filter="url(#filter0_f_302_44)">
<path d="M559 220H100.5V733H559V220Z" fill="#1BC47D"/>
<path d="M606 259H85.5V728.5H606V259Z" fill="#00C5DF"/>
<path d="M909 396.5H301V840.5H909V396.5Z" fill="#FFC700"/>
<path d="M817.5 59.5H275V688.5H817.5V59.5Z" fill="#00C5DF"/>
</g>
</g>
<g style="mix-blend-mode:overlay">
<path d="M800 0H0V800H800V0Z" fill="#808080"/>
</g>
</g>
<defs>
<filter id="filter0_f_302_44" x="-164.5" y="-190.5" width="1323.5" height="1281" filterUnits="userSpaceOnUse" color-interpolation-filters="sRGB">
<feFlood flood-opacity="0" result="BackgroundImageFix"/>
<feBlend mode="normal" in="SourceGraphic" in2="BackgroundImageFix" result="shape"/>
<feGaussianBlur stdDeviation="125" result="effect1_foregroundBlur_302_44"/>
</filter>
<clipPath id="clip0_302_44">
<rect width="800" height="800" fill="white"/>
</clipPath>
</defs>
</svg>
