<svg width="800" height="800" viewBox="0 0 800 800" fill="none" xmlns="http://www.w3.org/2000/svg">
<g clip-path="url(#clip0_305_334)">
<path d="M800 0H0V800H800V0Z" fill="black"/>
<path d="M800 0H0V800H800V0Z" fill="#FFC700" fill-opacity="0.112821"/>
<mask id="mask0_305_334" style="mask-type:luminance" maskUnits="userSpaceOnUse" x="0" y="0" width="800" height="800">
<path d="M800 0H0V800H800V0Z" fill="white"/>
</mask>
<g mask="url(#mask0_305_334)">
<g filter="url(#filter0_f_305_334)">
<path d="M626 363H25.5V893H626V363Z" fill="#00C5DF"/>
<path d="M624 345.5H102V807H624V345.5Z" fill="#F2371F"/>
<path d="M578 183.5H113V633.5H578V183.5Z" fill="#F2371F"/>
<path d="M513 277H21V701.5H513V277Z" fill="#18A0FB"/>
</g>
</g>
<g style="mix-blend-mode:overlay">
<path d="M800 0H0V800H800V0Z" fill="#808080"/>
</g>
</g>
<defs>
<filter id="filter0_f_305_334" x="-229" y="-66.5" width="1105" height="1209.5" filterUnits="userSpaceOnUse" color-interpolation-filters="sRGB">
<feFlood flood-opacity="0" result="BackgroundImageFix"/>
<feBlend mode="normal" in="SourceGraphic" in2="BackgroundImageFix" result="shape"/>
<feGaussianBlur stdDeviation="125" result="effect1_foregroundBlur_305_334"/>
</filter>
<clipPath id="clip0_305_334">
<rect width="800" height="800" fill="white"/>
</clipPath>
</defs>
</svg>
