<svg width="800" height="800" viewBox="0 0 800 800" fill="none" xmlns="http://www.w3.org/2000/svg">
<g clip-path="url(#clip0_302_16)">
<path d="M800 0H0V800H800V0Z" fill="white"/>
<path d="M800 0H0V800H800V0Z" fill="#907CFF" fill-opacity="0.215198"/>
<mask id="mask0_302_16" style="mask-type:luminance" maskUnits="userSpaceOnUse" x="0" y="0" width="800" height="800">
<path d="M800 0H0V800H800V0Z" fill="white"/>
</mask>
<g mask="url(#mask0_302_16)">
<g filter="url(#filter0_f_302_16)">
<path d="M650 174.5H144.5V637.5H650V174.5Z" fill="#EE46D3"/>
<path d="M871.5 22H347.5V428H871.5V22Z" fill="#FFC700"/>
<path d="M726.5 96H288.5V630H726.5V96Z" fill="#18A0FB"/>
<path d="M595.5 84.5H166.5V553H595.5V84.5Z" fill="#18A0FB"/>
</g>
</g>
<g style="mix-blend-mode:overlay">
<path d="M800 0H0V800H800V0Z" fill="#808080"/>
</g>
</g>
<defs>
<filter id="filter0_f_302_16" x="-105.5" y="-228" width="1227" height="1115.5" filterUnits="userSpaceOnUse" color-interpolation-filters="sRGB">
<feFlood flood-opacity="0" result="BackgroundImageFix"/>
<feBlend mode="normal" in="SourceGraphic" in2="BackgroundImageFix" result="shape"/>
<feGaussianBlur stdDeviation="125" result="effect1_foregroundBlur_302_16"/>
</filter>
<clipPath id="clip0_302_16">
<rect width="800" height="800" fill="white"/>
</clipPath>
</defs>
</svg>
