<svg xmlns="http://www.w3.org/2000/svg" fill="none" viewBox="0 0 444 362">
    <path fill="currentColor" d="M69.967 362C31.495 361.747.25 330.342.25 291.994c0-33.325 22.986-61.18 54.28-68.263a47.793 47.793 0 0 1-.765-8.559c0-26.253 21.358-47.61 47.61-47.61 8.721 0 17.078 2.326 24.37 6.688 19.982-26.423 50.813-41.898 84.46-41.898 52.588 0 96.916 38.738 104.781 89.784 36.399 2.452 65.264 32.848 65.264 69.858 0 38.222-31.096 69.624-69.318 70.001L69.967 362Zm31.408-174.438c-15.225 0-27.61 12.385-27.61 27.61 0 4.343.986 8.506 2.93 12.374a10.002 10.002 0 0 1-8.54 14.484c-26.862 1.06-47.905 23.007-47.905 49.964 0 27.392 22.332 49.825 49.782 50.006l240.801-.005c27.204-.268 49.417-22.699 49.417-50.001 0-27.58-22.438-50.017-50.017-50.017-1.027 0-2.144.044-3.514.139a9.997 9.997 0 0 1-10.673-9.336c-2.894-45.1-40.6-80.428-85.841-80.428-30.339 0-57.858 15.509-73.614 41.486a10 10 0 0 1-15.641 1.866c-5.221-5.251-12.174-8.142-19.575-8.142Z"/>
    <path fill="currentColor" d="M369.24 237.167c-4.533 0-8.638-3.103-9.724-7.707-1.268-5.376 2.062-10.76 7.438-12.028 18.338-4.324 34.955-13.736 48.086-27.038-22.942-5.455-43.849-17.599-60.15-35.183-20.621-22.244-31.978-51.209-31.978-81.558 0-18.658 4.249-36.753 12.402-53.191-23.004 1.953-44.47 11.725-61.18 28.005-18.742 18.26-29.461 42.697-30.183 68.81-.153 5.521-4.738 9.91-10.272 9.72-5.521-.153-9.872-4.752-9.72-10.273.866-31.343 13.728-60.67 36.218-82.582C282.709 12.188 312.447.098 343.912.098c3.206 0 6.49.133 9.759.397a10.002 10.002 0 0 1 7.379 15.719c-11.866 16.877-18.138 36.74-18.138 57.44 0 25.29 9.463 49.426 26.645 67.96 17.09 18.435 40.246 29.696 65.202 31.707a10.002 10.002 0 0 1 7.377 15.72c-16.964 24.127-42.034 41.123-70.592 47.857-.772.182-1.544.269-2.304.269Z"/>
</svg>