<svg xmlns="http://www.w3.org/2000/svg" fill="none" viewBox="0 0 460 420">
    <path fill="currentColor" d="M326.798 270a9.981 9.981 0 0 1-7.769-3.696c-3.481-4.287-2.828-10.585 1.459-14.067 18.818-15.28 29.61-37.93 29.61-62.139 0-44.113-35.888-80-80-80-40.804 0-74.981 30.528-79.502 71.011-.613 5.489-5.557 9.439-11.048 8.829-5.488-.613-9.441-5.56-8.828-11.048 5.652-50.62 48.375-88.792 99.378-88.792 55.14 0 100 44.86 100 100 0 30.261-13.487 58.569-37.002 77.665a9.96 9.96 0 0 1-6.298 2.237ZM270 74c-5.522 0-10-4.477-10-10V10c0-5.523 4.478-10 10-10s10 4.477 10 10v54c0 5.523-4.478 10-10 10ZM144 200H90c-5.523 0-10-4.477-10-10s4.477-10 10-10h54c5.523 0 10 4.477 10 10s-4.477 10-10 10ZM450 200h-54c-5.522 0-10-4.477-10-10s4.478-10 10-10h54c5.522 0 10 4.477 10 10s-4.478 10-10 10ZM358.542 111.458a9.966 9.966 0 0 1-7.071-2.929c-3.906-3.905-3.906-10.237 0-14.142l38.737-38.738c3.906-3.905 10.236-3.905 14.143 0 3.905 3.906 3.905 10.238 0 14.143l-38.738 38.737a9.966 9.966 0 0 1-7.071 2.929ZM181.458 111.458a9.966 9.966 0 0 1-7.071-2.929l-38.738-38.737c-3.904-3.905-3.904-10.237 0-14.143 3.906-3.905 10.238-3.905 14.143 0l38.737 38.738c3.905 3.905 3.905 10.237 0 14.142a9.966 9.966 0 0 1-7.071 2.929ZM397.279 327.279a9.971 9.971 0 0 1-7.071-2.928l-38.737-38.738c-3.906-3.905-3.906-10.237 0-14.142a9.998 9.998 0 0 1 14.142 0l38.738 38.737c3.905 3.905 3.905 10.237 0 14.143a9.973 9.973 0 0 1-7.072 2.928Z"/>
    <path fill="currentColor" d="M69.967 420C31.495 419.747.25 388.342.25 349.994c0-33.325 22.987-61.18 54.279-68.263a47.793 47.793 0 0 1-.764-8.559c0-26.253 21.358-47.61 47.61-47.61 8.72 0 17.078 2.327 24.37 6.688 19.981-26.423 50.812-41.898 84.461-41.898 52.588 0 96.915 38.738 104.78 89.784 36.399 2.452 65.264 32.848 65.264 69.858 0 38.222-31.096 69.624-69.318 70.001L69.967 420Zm31.408-174.438c-15.224 0-27.61 12.385-27.61 27.61 0 4.343.986 8.507 2.93 12.374a10 10 0 0 1-8.54 14.484c-26.863 1.06-47.905 23.007-47.905 49.964 0 27.392 22.333 49.825 49.783 50.006l240.8-.005c27.204-.268 49.417-22.699 49.417-50.001 0-27.58-22.438-50.017-50.017-50.017-1.027 0-2.144.044-3.514.139a9.997 9.997 0 0 1-10.673-9.336c-2.894-45.1-40.599-80.428-85.84-80.428-30.34 0-57.859 15.509-73.614 41.486a10.002 10.002 0 0 1-15.641 1.866c-5.222-5.251-12.174-8.142-19.576-8.142Z"/>
</svg>