<svg xmlns="http://www.w3.org/2000/svg" fill="none" viewBox="0 0 380 384">
    <path fill="currentColor" d="m310.579 230.091-10.584-.004L69.717 230C31.275 230 0 198.639 0 160.089c0-33.276 22.986-61.093 54.279-68.168a47.828 47.828 0 0 1-.764-8.557c0-26.253 21.358-47.612 47.61-47.612 8.721 0 17.078 2.327 24.37 6.688C145.477 16.015 176.309.538 209.956.538c52.584 0 96.909 38.729 104.778 89.766C351.137 92.752 380 123.138 380 160.138c0 38.196-31.097 69.577-69.318 69.952l-.103.001Zm-10.576-20.004 10.531.004c27.28-.295 49.466-22.694 49.466-49.953 0-27.566-22.438-49.993-50.017-49.993-1.178 0-2.438.077-3.514.151a9.999 9.999 0 0 1-10.673-9.336c-2.894-45.096-40.599-80.422-85.84-80.422-30.339 0-57.858 15.51-73.614 41.49a10.002 10.002 0 0 1-15.641 1.866c-5.221-5.25-12.173-8.142-19.576-8.142-15.224 0-27.61 12.387-27.61 27.612 0 4.343.986 8.507 2.93 12.374a10.001 10.001 0 0 1-8.54 14.484C41.042 111.282 20 133.187 20 160.089 20 187.61 42.303 210 69.717 210H80l220.003.087ZM94.002 365.054a9.97 9.97 0 0 1-7.074-2.933c-3.904-3.907-3.9-10.238.007-14.142l61.903-61.84c3.908-3.903 10.239-3.901 14.142.007 3.904 3.907 3.9 10.238-.007 14.141l-61.903 61.841a9.97 9.97 0 0 1-7.068 2.926Z"/>
    <path fill="currentColor" d="M155.875 365.085a9.968 9.968 0 0 1-7.075-2.933l-61.841-61.903c-3.903-3.907-3.9-10.238.007-14.142 3.908-3.902 10.24-3.9 14.142.007l61.841 61.904c3.904 3.907 3.9 10.238-.007 14.141a9.97 9.97 0 0 1-7.067 2.926Z"/>
    <path fill="currentColor" d="M174.954 334h-.005l-100 .029c-5.523-.003-9.998-4.497-9.995-10.019.003-5.522 4.48-10.01 10-10.01h.005l100 .104c5.523.003 9.998 4.43 9.995 9.953-.003 5.52-4.48 9.943-10 9.943Z"/>
    <path fill="currentColor" d="M124.929 384h-.005c-5.523 0-9.998-4.416-9.995-9.938l.05-100.034c.003-5.521 4.48-10.028 10-10.028h.005c5.523 0 9.998 4.549 9.995 10.071l-.05 99.967c-.003 5.522-4.48 9.962-10 9.962ZM232.711 320.734a9.994 9.994 0 0 1-8.653-4.973c-2.778-4.774-1.16-10.895 3.615-13.672l60.506-35.199c4.774-2.782 10.895-1.16 13.672 3.615 2.777 4.773 1.159 10.894-3.616 13.672l-60.506 35.199a9.944 9.944 0 0 1-5.018 1.358Z"/>
    <path fill="currentColor" d="M293.707 319.83a9.97 9.97 0 0 1-4.762-1.213l-61.523-33.39c-4.854-2.635-6.653-8.706-4.019-13.56 2.634-4.854 8.703-6.652 13.56-4.019l61.523 33.391c4.854 2.635 6.654 8.705 4.019 13.56a10 10 0 0 1-8.798 5.231Z"/>
    <path fill="currentColor" d="M262.937 338h-.005c-5.524 0-9.998-4.71-9.995-10.232l.035-68.798c.003-5.522 4.479-9.97 10-9.97h.005c5.523 0 9.998 4.343 9.995 9.866l-.035 68.981c-.003 5.521-4.48 10.153-10 10.153Z"/>
</svg>