<svg xmlns="http://www.w3.org/2000/svg" fill="none" viewBox="0 0 380 337">
    <path fill="currentColor" d="m310.58 230.091-10.584-.004c-5.523-.002-9.998-4.481-9.996-10.004.001-5.521 4.479-9.996 10-9.996h.003l10.532.004c27.28-.295 49.465-22.694 49.465-49.953 0-27.566-22.438-49.993-50.017-49.993-1.178 0-2.438.077-3.515.151a10.004 10.004 0 0 1-10.673-9.336c-2.892-45.096-40.598-80.422-85.839-80.422-30.339 0-57.858 15.51-73.614 41.49a10.002 10.002 0 0 1-15.641 1.866c-5.221-5.25-12.173-8.142-19.576-8.142-15.224 0-27.61 12.387-27.61 27.612a27.3 27.3 0 0 0 2.93 12.374 10.002 10.002 0 0 1-8.54 14.484C41.042 111.282 20 133.187 20 160.089 20 187.61 42.303 210 69.717 210H80c5.523 0 10 4.478 10 10s-4.477 10-10 10H69.717C31.275 230 0 198.639 0 160.089c0-33.276 22.986-61.093 54.279-68.168a47.828 47.828 0 0 1-.764-8.557c0-26.253 21.358-47.612 47.61-47.612 8.721 0 17.078 2.327 24.37 6.688C145.477 16.015 176.309.538 209.956.538c52.585 0 96.909 38.729 104.778 89.766C351.136 92.752 380 123.138 380 160.138c0 38.196-31.096 69.577-69.318 69.952l-.102.001Z"/>
    <path fill="currentColor" d="M96.033 324.085a9.97 9.97 0 0 1-7.066-2.924c-3.908-3.902-3.912-10.234-.01-14.142L131.915 264h-25.882a9.999 9.999 0 0 1-6.886-17.251l63-59.829c4.005-3.803 10.334-3.642 14.137.365 3.803 4.004 3.64 10.334-.365 14.137L131.085 244h24.948a10 10 0 0 1 7.076 17.066l-60 60.085a9.972 9.972 0 0 1-7.076 2.934ZM197.958 288.94a9.97 9.97 0 0 1-7.075-2.933c-3.903-3.907-3.9-10.238.008-14.142L233.799 229h-25.841a10 10 0 0 1-6.904-17.234l63-60.121c3.996-3.813 10.325-3.666 14.138.33 3.813 3.996 3.665 10.325-.33 14.138L232.921 209h25.037c4.045 0 7.692 2.438 9.24 6.176a9.997 9.997 0 0 1-2.173 10.898l-60 59.94a9.968 9.968 0 0 1-7.067 2.926ZM146.958 336.939a9.969 9.969 0 0 1-7.075-2.932c-3.903-3.907-3.9-10.239.008-14.142l25.042-25.016c3.907-3.904 10.238-3.901 14.142.006 3.903 3.908 3.9 10.24-.008 14.142l-25.042 25.017a9.969 9.969 0 0 1-7.067 2.925ZM55.958 303.939a9.968 9.968 0 0 1-7.075-2.932c-3.903-3.907-3.9-10.238.008-14.142l15.792-15.776c3.907-3.902 10.238-3.9 14.142.007 3.903 3.907 3.9 10.238-.008 14.141l-15.792 15.777a9.97 9.97 0 0 1-7.067 2.925ZM234.958 317.939a9.969 9.969 0 0 1-7.075-2.932c-3.903-3.907-3.9-10.238.008-14.142l51.992-51.939c3.907-3.904 10.239-3.901 14.142.007 3.903 3.907 3.9 10.238-.007 14.141l-51.993 51.94a9.969 9.969 0 0 1-7.067 2.925Z"/>
</svg>